<svg width="175" height="49" viewBox="0 0 175 49" fill="none" xmlns="http://www.w3.org/2000/svg">
<path d="M101.492 6.78252L111.307 10.6433L101.492 14.2954V19.5128L118.303 12.7303V8.5564L101.492 1.7739V6.78252Z" fill="#405169"/>
<path d="M11.3813 26.1909C6.68259 26.1909 3.23689 28.2778 2.92364 32.6604H8.14441V32.556C8.24882 31.0952 9.60622 30.0517 11.068 30.1561C13.0519 30.1561 13.9917 31.3039 13.9917 33.2865V34.2256H11.5901C6.47376 34.2256 2.29715 35.7908 2.29715 40.695V40.9037C2.29715 44.8689 5.22078 46.6428 8.7709 46.6428C10.9636 46.7471 12.9475 45.7037 14.2005 44.0341V46.3297H19.5257V33.1821C19.4213 28.1735 15.9756 26.1909 11.3813 26.1909ZM10.2327 42.782C8.35324 42.782 7.51791 41.8429 7.51791 40.4864V40.2777C7.51791 38.5038 8.87531 37.7734 11.5901 37.7734H13.7828V39.6516C13.8872 41.7385 12.1122 42.782 10.2327 42.782Z" fill="#405169"/>
<path d="M32.0555 42.5733C29.4451 42.5733 28.0877 40.7994 28.0877 36.8342V36.2082C28.0877 32.3473 29.6539 30.4691 32.0555 30.4691C33.935 30.4691 34.9791 31.7213 35.2924 33.5995H40.5131C40.0955 28.4865 36.3365 26.1909 31.9511 26.1909C26.7303 26.1909 22.5537 29.7387 22.5537 36.4169V36.6255C22.5537 43.3037 26.5215 46.6428 31.9511 46.6428C37.2763 46.6428 40.3043 43.4081 40.722 39.0255H35.71C35.2924 41.2168 33.935 42.5733 32.0555 42.5733Z" fill="#405169"/>
<path d="M52.4165 42.5733C49.8061 42.5733 48.4487 40.7994 48.4487 36.8342V36.2082C48.4487 32.3473 50.0149 30.4691 52.4165 30.4691C54.2959 30.4691 55.3401 31.7213 55.6533 33.5995H60.8741C60.4564 28.4865 56.6975 26.1909 52.312 26.1909C47.0913 26.1909 42.9147 29.7387 42.9147 36.4169V36.6255C42.9147 43.3037 46.8825 46.6428 52.312 46.6428C57.6372 46.6428 60.6653 43.4081 60.9785 39.0255H56.071C55.7578 41.2168 54.2959 42.5733 52.4165 42.5733Z" fill="#405169"/>
<path d="M72.9863 42.6776C70.5847 42.6776 69.1229 41.3211 68.9141 37.7734H81.6528V35.4777C81.6528 29.0083 77.5806 26.1909 72.673 26.1909C67.3479 26.1909 63.2757 29.843 63.2757 36.4169V36.8342C63.2757 43.4081 67.139 46.7471 72.7775 46.7471C77.8938 46.7471 81.0263 43.9298 81.5483 40.1733H76.432C76.2232 41.7385 74.6569 42.8863 72.9863 42.6776ZM72.673 29.9474C74.8658 29.9474 76.2232 31.1995 76.3276 34.1212H69.0185C69.4362 30.9908 71.0024 30.0517 72.673 29.9474Z" fill="#405169"/>
<path d="M96.4797 26.1909C93.9737 26.0866 91.6766 27.3387 90.528 29.53V26.6083H85.0984V46.2254H90.528V34.2256C90.528 34.0169 90.528 33.9125 90.528 33.7038C90.6325 31.93 92.1987 30.4691 93.9737 30.5735C95.9576 30.5735 96.8974 31.6169 96.8974 33.9125V46.2254H102.431V33.0778C102.431 28.2778 100.03 26.1909 96.4797 26.1909Z" fill="#405169"/>
<path d="M112.664 39.9646V30.6778H116.423V26.6083H112.664V20.6606L107.234 22.9562V26.6083H104.833V30.6778H107.13V40.5907C107.13 44.5559 109.114 46.5384 113.395 46.5384C114.439 46.5384 115.483 46.4341 116.527 46.121V41.8428C115.901 42.0515 115.274 42.1559 114.648 42.1559C113.395 42.1559 112.664 41.4255 112.664 39.9646Z" fill="#405169"/>
<path d="M131.563 38.8168C131.563 39.0255 131.563 39.1299 131.563 39.3386C131.459 41.1124 129.893 42.5733 128.118 42.4689C126.134 42.4689 125.298 41.4255 125.298 39.1299V26.6083H119.764V39.8603C119.764 44.4515 122.375 46.6428 125.925 46.6428C128.326 46.7471 130.519 45.495 131.668 43.3037V46.2254H137.202V26.6083H131.668L131.563 38.8168Z" fill="#405169"/>
<path d="M146.599 30.1561V26.504H141.169V46.1211H146.599V35.9995C146.599 32.7647 148.792 31.6169 152.551 31.6169V26.1909C149.836 26.1909 147.434 27.7561 146.599 30.1561Z" fill="#405169"/>
<path d="M172.598 35.3734C172.598 28.9039 168.526 26.1909 163.619 26.1909C158.294 26.1909 154.221 29.843 154.221 36.4169V36.8342C154.221 43.4081 158.085 46.7471 163.723 46.7471C168.839 46.7471 171.868 43.9298 172.494 40.1733H167.378C166.96 41.8429 165.394 42.8863 163.723 42.782C161.322 42.782 159.86 41.4255 159.651 37.8777H172.39V35.3734H172.598ZM159.86 34.1212C160.277 30.8865 161.844 29.9474 163.619 29.9474C165.811 29.9474 167.169 31.1995 167.273 34.1212H159.86Z" fill="#405169"/>
</svg>
