<svg width="129" height="158" viewBox="0 0 129 158" fill="none" xmlns="http://www.w3.org/2000/svg">
<g clip-path="url(#clip0_14_22)">
<path d="M104.73 85.3693C104.554 65.7591 120.794 56.3446 121.529 55.8856C112.39 42.5549 98.1669 40.7287 93.0929 40.5139C80.9956 39.2931 69.4762 47.6137 63.3442 47.6137C57.2123 47.6137 47.7303 40.6897 37.6998 40.885C24.4956 41.0803 12.3395 48.5318 5.54147 60.3096C-8.16232 84.0118 2.04452 119.14 15.3859 138.379C21.9194 147.784 29.6969 158.38 39.9234 157.99C49.7776 157.599 53.4998 151.642 65.3915 151.642C77.2831 151.642 80.6331 157.99 91.0457 157.804C101.635 157.599 108.354 148.194 114.839 138.76C122.322 127.842 125.418 117.275 125.594 116.718C125.359 116.621 104.945 108.818 104.73 85.3693" fill="#405169"/>
<path d="M85.3576 27.9028C91.0435 21.3085 94.882 12.1393 93.8247 3C85.6339 3.31482 75.72 8.22836 69.8389 14.8227C64.5739 20.6506 59.9554 29.9865 61.207 38.9397C70.3417 39.6178 79.6708 34.4874 85.3576 27.9028" fill="#405169"/>
</g>
<defs>
<clipPath id="clip0_14_22">
<rect width="129" height="158" fill="white"/>
</clipPath>
</defs>
</svg>
