            <svg class="preloader__logo" width="100%"  viewBox="0 0 190 101" fill="none" xmlns="http://www.w3.org/2000/svg">
                <path class="logo__m"
                    d="M90.7084 10.2016V19.1539L88.04 27.3439L64.683 99.1591H61.9916C55.2224 99.1591 52.1266 94.631 49.851 88.6935L21.9081 16.2776H21.3305V71.7707C21.3305 91.9626 21.9081 96.9066 37.2946 96.9066H40.6792V99.1591H1V96.9066H2.55945C17.946 96.4792 18.5235 90.253 18.5235 71.6321V14.0251C18.5235 5.83514 14.134 3.87139 5.53972 3.87139V1.61887H48.3147L72.7228 65.4174L85.106 27.3439L90.7084 10.2016Z"
                    stroke="#1A2535" stroke-width="2" stroke-miterlimit="10" />
                <path class="logo__t"
                    d="M94.1635 4.05044C81.6821 4.91449 75.2249 16.5087 71.9847 27.4536H66.8478V1.72168H145.771V21.1881L140.658 27.4525C137.993 18.5475 133.217 9.21047 124.839 5.58563C122.608 4.60145 120.11 4.02502 117.351 3.97766V97.0152H123.664V99.2712H87.0108V97.0152H94.1635V4.43395V4.05044V4.05044Z"
                    stroke="#1A2535" stroke-width="2" stroke-miterlimit="10" />
                <path class="logo__k"
                    d="M182.728 97.0152L149.171 33.8139L148.067 31.7254L146.602 28.9646L147.827 27.4525L149.171 25.7718L150.467 24.1638L156.66 16.4832L159.709 12.7152C161.149 10.9628 162.637 9.42647 164.365 8.1304C167.87 5.514 172.214 3.97766 178.479 3.97766V1.72168H153.347V4.67423C155.147 5.13051 156.204 5.87441 156.66 7.02609C156.828 7.45812 156.9 7.93866 156.9 8.49082C156.9 9.01872 156.829 9.57086 156.66 10.1715C156.18 11.9239 154.979 13.9639 153.084 16.3885L149.267 21.0692L149.171 21.1893V21.187L137.415 35.609L128.24 46.8727L120.751 56.0654V60.7218L127.808 51.9612L128.24 52.8737L129.2 54.8894L149.41 97.0152H140.505V99.2712H188.368V97.0152H182.728V97.0152Z"
                    stroke="#1A2535" stroke-width="2" stroke-miterlimit="10" />
            </svg>