<svg width="199" height="100" viewBox="0 0 199 100" fill="none" xmlns="http://www.w3.org/2000/svg">
<path d="M86.5 23L88 23.5L89 24L88.04 26.725L64.683 98.5403H61.9916C55.2224 98.5403 52.1266 94.0121 49.851 88.0747L21.9081 15.6588H21.3305V71.1518C21.3305 91.3438 21.9081 96.2878 37.2946 96.2878H40.6792V98.5403H1V96.2878H2.55945C17.946 95.8604 18.5235 89.6341 18.5235 71.0132V13.4062C18.5235 5.21628 14.134 3.25253 5.5397 3.25253V1H48.3146L72.7228 64.7986L85.5 26.725L86.5 23Z" fill="#FEFEFE" stroke="#FEFEFE" stroke-miterlimit="10"/>
<path d="M97.1634 3.43156C84.6821 4.29561 78.2249 15.8898 74.9847 26.8348H69.8478V1.10278H148.771V20.5693L143.658 26.8336C140.993 17.9286 136.217 8.59158 127.839 4.96674C125.608 3.98256 123.11 3.40614 120.351 3.35878V96.3963H126.663V98.6523H90.0108V96.3963H97.1634V3.81505V3.43156Z" fill="#FEFEFE" stroke="#FEFEFE" stroke-miterlimit="10"/>
<path d="M192.728 96.3963L159.171 33.195L158.067 31.1065L156.602 28.3457L157.827 26.8336L159.171 25.1529L160.467 23.5449L166.66 15.8643L169.709 12.0963C171.149 10.3439 172.637 8.80759 174.365 7.51152C177.87 4.89512 182.214 3.35878 188.478 3.35878V1.10278H163.347V4.05533C165.147 4.51161 166.204 5.25552 166.66 6.4072C166.828 6.83922 166.9 7.31976 166.9 7.87192C166.9 8.39982 166.829 8.95198 166.66 9.55266C166.18 11.305 164.979 13.345 163.084 15.7696L159.267 20.4503L159.171 20.5704V20.5681L147.415 34.9901L138.24 46.2539L130.751 55.4465V60.1029L137.808 51.3423L138.24 52.2548L139.2 54.2705L159.41 96.3963H150.505V98.6523H198.368V96.3963H192.728Z" fill="#FEFEFE" stroke="#FEFEFE" stroke-miterlimit="10"/>
</svg>
