<svg width="170" height="27" viewBox="0 0 170 27" fill="none" xmlns="http://www.w3.org/2000/svg">
<path d="M140.579 20.2145H140.448L134.864 0.791475H125.857V25.2778H131.823L131.487 5.18374H131.619L137.614 25.2778H146.257V0.79027H140.25L140.579 20.2145ZM25.9837 0.79027L21.4903 25.5356H28.0474L31.3699 3.07434H31.5084L34.743 25.5368H41.2615L36.7885 0.79027H25.9837ZM62.6614 0.79268L59.6642 19.7122H59.5281L56.5453 0.79268H46.6464L46.1091 25.5356H52.1783L52.3301 3.28396H52.4674L56.5212 25.5356H62.6771L66.7321 3.29119L66.867 3.28396L67.0248 25.5356H73.0964L72.5603 0.79268H62.6614ZM6.45347 7.1558C6.33903 6.64984 6.36674 6.14387 6.42817 5.86438C6.60285 5.06929 7.12809 4.19831 8.6472 4.19831C10.0711 4.19831 10.8999 5.097 10.8999 6.43902V7.96776H16.9607V6.24024C16.9607 0.842072 12.2118 0 8.77369 0C4.45973 0 0.937241 1.46128 0.287919 5.49816C0.110831 6.58237 0.0891463 7.57623 0.346948 8.8291C1.40104 13.8863 10.0229 15.3512 11.2746 18.5497C11.5095 19.146 11.4336 19.9194 11.318 20.3868C11.1216 21.1963 10.5759 22.0384 8.95559 22.0384C7.44011 22.0384 6.51491 21.153 6.51491 19.8025L6.5113 17.4016H0.00361404L0 19.3146C0 24.8345 4.25975 26.4933 8.82187 26.4933C13.219 26.4933 16.8234 24.9778 17.4064 20.847C17.7028 18.7051 17.4847 17.3004 17.3799 16.7764C16.3523 11.5926 7.14616 10.0603 6.45347 7.1558ZM85.4203 7.21363C85.301 6.71971 85.3347 6.21856 85.3913 5.9451C85.5612 5.15483 86.0816 4.29348 87.5875 4.29348C88.9946 4.29348 89.821 5.17892 89.821 6.50286V8.02076H95.8167V6.30891C95.8167 0.976995 91.1112 0.137334 87.7176 0.137334C83.441 0.137334 79.9486 1.56608 79.3137 5.57767C79.1367 6.65706 79.1089 7.6437 79.3692 8.87849C80.4136 13.8827 88.95 15.3368 90.192 18.5003C90.4185 19.0966 90.3498 19.8567 90.239 20.3205C90.0414 21.1361 89.4957 21.9529 87.8983 21.9529C86.39 21.9529 85.4817 21.0807 85.4817 19.7447L85.4769 17.3619H79.027V19.258C79.027 24.7212 83.2494 26.3608 87.767 26.3608C92.1099 26.3608 95.6841 24.8586 96.2564 20.7711C96.5503 18.6569 96.3335 17.2643 96.2311 16.7426C95.2131 11.6143 86.0949 10.0904 85.4203 7.21363ZM112.946 19.0906C112.951 19.405 112.941 19.7688 112.889 20.0338C112.769 20.6494 112.25 21.8143 110.562 21.8143C108.88 21.8143 108.355 20.6494 108.234 20.0338C108.183 19.7688 108.171 19.405 108.173 19.0906V0.787861H102.039V18.5232C102.029 18.9821 102.074 19.911 102.095 20.1579C102.512 24.7706 106.097 26.2608 110.561 26.2608C115.019 26.2608 118.603 24.7706 119.033 20.1579C119.055 19.911 119.102 18.9809 119.095 18.5232V0.787861H112.945V19.0906H112.946ZM161.242 11.624V15.2476H163.727V18.8364C163.734 19.1484 163.722 19.4929 163.67 19.776C163.562 20.4422 162.943 21.5662 161.192 21.5662C159.437 21.5662 158.82 20.441 158.707 19.776C158.66 19.4929 158.646 19.1484 158.653 18.8364V7.5148C158.653 7.11243 158.678 6.67272 158.752 6.35348C158.88 5.74392 159.403 4.55731 161.168 4.55731C163.025 4.55731 163.484 5.81017 163.594 6.35348C163.665 6.69682 163.67 7.28832 163.67 7.28591V8.67972H169.788V7.85331C169.785 7.85331 169.809 7.00762 169.738 6.23542C169.289 1.58174 165.517 0.116854 161.219 0.116854C156.918 0.116854 153.235 1.59379 152.702 6.23542C152.65 6.63538 152.596 7.4136 152.596 7.85331L152.593 18.2642C152.596 18.7304 152.61 19.0749 152.678 19.8989C153.078 24.4044 156.918 26.0187 161.214 26.0187C165.512 26.0187 169.353 24.4044 169.755 19.8989C169.821 19.0737 169.831 18.7292 169.832 18.2642V11.624H161.242Z" fill="#405169"/>
</svg>
